<?xml version="1.0" encoding="utf-8"?>
<!-- Generator: Adobe Illustrator 24.0.2, SVG Export Plug-In . SVG Version: 6.00 Build 0)  -->
<svg version="1.1" id="Layer_1" xmlns="http://www.w3.org/2000/svg" xmlns:xlink="http://www.w3.org/1999/xlink" x="0px" y="0px"
	 viewBox="0 0 102.05 102.05" style="enable-background:new 0 0 102.05 102.05;" xml:space="preserve">
<g>
	<path d="M70.49,4.32c-9.72,0-17.6,7.89-17.6,17.6c0,9.73,7.88,17.6,17.6,17.6c9.71,0,17.6-7.87,17.6-17.6
		C88.08,12.2,80.2,4.32,70.49,4.32z"/>
	<path d="M39.76,44.99c-5.46,0-10.53,2.15-14.23,5.94V21.91h-6.51v76.05h6.69V62.72c0-7.15,7.23-11.46,13.66-11.46
		c7.66,0,12.24,4.99,12.24,12.14v34.56h6.7V63.4C58.32,52.56,50.94,44.99,39.76,44.99z"/>
</g>
</svg>
