<?xml version="1.0" encoding="utf-8"?>
<!-- Generator: Adobe Illustrator 24.0.2, SVG Export Plug-In . SVG Version: 6.00 Build 0)  -->
<svg version="1.1" id="Layer_1" xmlns="http://www.w3.org/2000/svg" xmlns:xlink="http://www.w3.org/1999/xlink" x="0px" y="0px"
	 viewBox="0 0 250 100" style="enable-background:new 0 0 250 100;" xml:space="preserve">
<style type="text/css">
	.st0{fill-rule:evenodd;clip-rule:evenodd;}
</style>
<g>
	<path d="M25.42,32.4c0,0-1.74-1.03,1.87-2.66c0,0,9.54-5.14,29.7-6.34c0,0,13.81-1.42,14.91-0.11c0,0,0.99,0.77,1.64,1.75
		c0,0,0.77,1.75,4.38,0.44c0,0,1.97-1.64,4.93,0.11c0,0,1.2,1.96,6.57,1.31c0,0,0.77-0.33,0.77-1.2c0,0-0.88-0.55,0.55-0.77
		c0,0,0.56,0.08,0.77-0.55c0,0,1.32-1.36,5.11-1.52c0,0,2.27-0.42,3.11-2.1c0,0,0.31-2.1,3.48-0.94c0,0,5.32,2.41,7.8,2.26
		c0,0,1.37,0.1,3.58-3c0,0,0.74-1.89,4.11-1.94c0,0,14.65-0.68,18.29,2.05c0,0,1.48,1.15,3.16,0.1c0,0,0.32-0.26,0.42-0.37
		c0,0,3.59-2.91,7.54-2.58c0,0,1.48-0.08,2.94-1.15c0,0,2.64-1.74,6.63-1.79c0,0,7.92-0.22,12.64,2.8c0,0,3.48,2.68,5.51,1.73
		c0,0,1.4-0.45,1.52-0.61c0,0,4.05-3.08,8.88,0.78c0,0,2.53,2.69,5.67,3.3c0,0,4.95,0.51,7.36,2.86c0,0,0.78,0.76,4.37,1.59
		c0,0,5.02,1.12,7.33,2.15c0,0,3.46,0.59,5.89,1.25c0.05,0.01,0.11,0.03,0.16,0.04c0.61,0.19,1.55,0.19,2,0.28c0.05,0,0.1,0,0.14,0
		c1.63,0.06,4.32,0.31,4.89,1.26c0,0,1.47,1.52-0.69,1.62h-21.29h-3.49l-0.64-0.29h-6.93h-24.54l-0.59,0.42H87.28h-2.19
		c0,0-1.17-0.15-1.68,0.44H71.98l-0.95-0.36h-12l-0.88-0.14l-1.1,0.29l-0.44,0.22h-3.58l-0.81-0.51h-9.37l-0.8,0.22H26.27
		C26.27,32.73,25.9,32.71,25.42,32.4"/>
	<polygon class="st0" points="85.77,66.77 85.66,65.72 85.22,64.59 85,64.37 84.53,63.47 83.94,62.61 84.01,62.19 84.05,61.03 
		83.94,60.8 83.87,58.55 83.61,57.73 84.05,57.01 83.98,53.07 83.9,52.47 84.05,51.8 84.12,50.67 84.01,47.48 83.94,46.81 
		83.72,46.36 84.05,45.98 84.08,45.15 84.08,42.83 84.01,41.78 83.57,41.14 82.98,40.91 81.41,40.91 80.78,41.21 80.49,40.95 
		79.76,40.91 77.63,40.91 77.08,41.25 76.6,41.18 75.87,40.88 75.13,40.91 74.4,41.06 73.66,41.33 73.04,42.04 72.93,42.98 
		73.04,43.39 73,44.67 73.19,45.38 73.15,45.68 73.04,46.06 73,46.77 72.86,47.67 72.93,48.42 73.19,49.06 73.15,49.36 73.15,49.92 
		73,50.52 72.89,51.27 72.89,55.66 73.22,56.3 73.26,56.71 73,57.24 72.82,57.84 72.82,58.78 72.45,58.96 72.09,58.96 71.54,58.66 
		71.1,58.29 70.87,57.99 70.87,56.45 70.58,55.48 70.54,55.18 70.8,54.8 70.87,54.09 70.87,51.05 70.8,50.48 70.98,49.92 
		70.98,47.37 70.65,46.28 70.84,45.6 70.95,44.25 70.95,41.96 70.69,41.29 70.07,40.95 68.78,40.91 68.23,41.03 67.65,41.25 
		66.99,41.03 66.14,40.84 64.75,40.69 63.97,40.84 63.35,41.18 62.36,40.8 61.41,40.8 60.78,41.1 60.34,41.7 60.42,42.57 
		60.31,43.09 60.16,44.29 60.27,45 60.64,45.94 60.27,47.03 60.27,49.58 60.53,50.6 60.12,51.42 60.16,54.54 60.12,56.3 
		60.34,56.94 60.2,57.5 60.16,58.7 60.49,59.94 60.53,60.43 60.86,61.11 60.86,61.52 61.11,62.08 61.77,62.98 62.36,63.39 
		62.43,63.77 62.84,64.41 63.94,65.31 64.93,66.1 65.66,66.43 66.4,66.47 66.99,66.55 67.35,66.85 67.5,67.15 67.79,67.37 
		68.78,67.71 69.88,67.9 71.46,67.86 72.38,67.56 73.37,67.07 74.25,66.81 75.06,66.7 75.87,67.18 76.34,67.3 77.04,67.56 
		77.37,67.9 78.07,68.05 78.87,68.08 79.35,67.71 80.27,68.01 83.35,68.01 84.71,67.64 85.33,67.33 85.77,66.77 	"/>
	<polygon class="st0" points="108.79,48.57 108.76,47.52 108.36,46.77 108.65,46.36 108.65,45.83 108.58,41.59 108.17,40.95 
		107.47,40.76 106.59,40.8 105.93,40.99 104.98,41.03 104.06,40.91 103.51,41.06 103.22,41.36 102.52,41.14 101.9,41.18 
		101.38,40.91 99.77,40.99 99.22,41.14 98.37,41.18 98.19,41.06 97.49,41.1 96.39,41.14 95.8,40.95 95.14,40.99 94.3,41.33 
		93.82,41.36 92.72,41.06 90.92,41.14 90.23,41.18 89.49,41.44 89.13,42.04 89.05,43.92 89.31,44.29 89.38,44.74 89.09,45.94 
		89.05,46.77 89.24,46.99 89.05,47.89 89.05,48.68 89.35,49.17 89.68,49.62 90.26,49.92 91.22,49.92 91.69,49.66 92.98,49.73 
		93.38,49.7 93.82,49.92 93.71,51.53 94.04,52.4 93.71,53.49 93.68,54.39 93.64,55.66 93.57,56.38 93.82,56.9 94.04,57.58 
		93.75,58.55 93.64,59.42 93.57,60.95 93.75,61.55 93.86,62.12 93.6,62.83 93.46,64.89 93.46,66.58 93.71,67.37 94.23,67.78 
		95,67.94 95.95,67.9 96.17,67.82 96.72,67.86 97.27,67.52 97.79,67.71 98.7,67.94 99.73,67.94 100.43,67.71 100.69,67.41 
		101.02,67.41 101.6,67.56 102.23,67.94 103.69,67.78 104.02,67.56 104.43,67.15 104.39,64.86 104.1,64.18 104.25,63.43 
		104.25,61.97 104.28,61.25 104.28,59.3 104.06,59 104.1,58.21 104.32,57.8 104.28,56.41 104.21,55.4 104.02,55.1 104.21,54.72 
		104.17,53.3 104.1,51.76 104.1,51.27 104.28,50.52 104.25,49.92 104.5,49.58 104.98,49.28 105.53,49.55 106.3,49.73 107.62,49.58 
		108.5,49.17 108.79,48.57 	"/>
	<polygon class="st0" points="195.62,43.54 195.58,42.49 195.43,42.04 195.07,41.29 194.11,40.76 192.76,40.8 192.13,41.1 
		191.76,41.33 191.29,41.18 190.85,40.99 189.89,41.03 189.34,41.21 188.94,41.25 188.24,41.1 187.76,40.95 186.74,41.1 
		184.79,41.1 184.06,41.44 183.62,41.63 183.36,41.36 182.85,41.33 182.37,41.51 181.42,41.74 180.17,42.41 179.4,42.9 
		178.99,43.58 178.37,43.99 177.6,44.22 177.09,44.7 176.46,45.34 175.84,46.17 175.62,46.92 174.74,47.29 174.59,47.82 
		174.15,48.31 173.56,49.32 173.09,50.37 172.87,51.61 172.87,53.3 172.68,53.67 172.5,54.8 172.54,55.78 172.83,56.6 173.2,57.13 
		173.2,58.06 173.34,58.89 173.82,60.09 174.59,61.48 175.47,62.68 176.21,63.17 176.35,63.69 176.79,64.56 177.31,64.75 
		177.64,65.23 178.52,65.68 179.21,65.68 179.84,66.58 180.68,67 181.49,67.3 182.55,67.33 183.14,67.67 184.57,67.67 185.27,67.22 
		185.56,67.48 186.37,67.64 187.18,67.86 188.61,67.86 189.23,67.71 189.78,67.41 190.22,67.41 191.18,67.94 191.95,68.05 
		192.61,67.78 193.23,67.75 194.3,67.86 194.81,67.52 195.25,66.96 195.4,66.36 195.29,65.27 195.03,64.63 195.47,63.81 
		195.54,62.98 195.54,62.23 195.1,61.37 195.47,60.28 195.47,59.57 195.21,58.55 194.77,57.88 193.97,57.8 193.75,57.84 
		192.97,57.8 192.39,58.18 192.02,57.99 190.59,58.03 189.93,58.4 189.38,58.1 188.61,58.1 188.24,57.99 187.32,58.06 187.14,58.14 
		186.77,58.06 186.59,57.73 186.11,57.46 185.49,57.16 184.9,56.98 184.53,55.81 184.2,54.99 184.2,53.9 184.46,53.45 184.53,52.92 
		184.57,52.29 185.75,51.68 186.11,51.38 186.7,51.08 187.29,50.86 188.31,50.18 188.61,50.18 189.05,50.3 189.93,50.33 
		190.41,50.26 191.47,50.37 191.87,50.3 192.24,50.11 192.57,50.11 193.34,50.41 194.41,50.41 194.85,50.33 195.21,50.07 
		195.43,49.66 195.43,48.01 195.36,47.44 195.32,46.92 195.51,46.21 195.51,45.19 195.21,44.48 195.62,43.54 	"/>
	<polygon class="st0" points="225,46.96 224.89,46.47 224.6,45.72 224.01,45.12 223.42,44.82 223.17,44.18 222.8,43.58 
		222.07,42.83 221.33,42.04 220.52,41.66 220.08,41.03 219.17,40.8 217.74,40.8 216.93,41.06 216.23,41.66 216.08,42.38 
		214.58,43.17 214.1,43.73 213.48,44.4 213.07,45.23 212.3,45.45 211.9,46.02 211.57,46.54 211.09,46.84 210.58,45.23 210.69,44.93 
		210.91,44.4 210.98,43.54 211.13,42.26 211.17,41.78 210.76,41.03 209.92,40.73 209.37,40.73 208.63,40.84 208.12,40.76 
		206.98,40.8 206.07,41.29 205,40.84 204.38,40.8 203.75,40.95 203.5,41.33 203.09,41.4 201.95,40.88 201.11,40.88 200.71,41.03 
		200.27,41.4 199.86,42 199.72,42.83 199.86,43.69 200.16,44.4 200.19,44.7 199.97,45.08 199.94,46.32 199.94,47.67 200.19,48.64 
		200.27,49.06 199.9,49.92 199.94,50.56 199.86,51.38 199.86,51.91 200.08,52.55 200.08,53.04 200.27,53.52 200.12,53.86 
		200.08,54.87 200.23,56.49 200.23,57.43 200.16,57.91 200.05,59.34 200.23,59.79 200.23,61.22 200.27,61.7 200.05,62.49 
		200.12,64.52 200.19,65.38 200.01,66.21 200.16,67 200.49,67.6 201.04,68.01 202.43,68.05 202.91,67.82 203.35,67.52 203.61,67.67 
		204.08,68.01 205.15,68.01 205.41,67.94 205.84,67.97 206.54,67.9 207.5,67.33 207.97,67.86 208.63,67.94 209.33,67.9 210.36,67.6 
		211.06,67.45 211.39,66.88 211.57,66.43 211.28,65.42 210.98,64.75 211.09,64.33 211.02,63.96 211.42,63.13 211.57,62.38 
		211.35,61.97 211.35,61.37 211.86,61.86 212.56,62.87 213.26,63.28 213.33,63.69 214.21,64.52 216.05,65.76 217.07,66.1 
		217.4,66.77 218.36,67.22 219.75,67.9 220.74,68.2 221.48,68.16 221.95,67.9 222.54,68.31 223.53,68.31 224.41,67.97 224.67,67.37 
		224.71,66.55 224.52,65.83 224.89,65.27 224.85,64.03 224.56,63.36 224.89,62.79 224.85,61.86 224.27,60.54 224.78,59.53 
		224.78,58.18 224.6,57.54 223.97,57.13 223.28,57.2 222.65,57.2 221.77,56.45 221.11,56.23 218.87,55.03 218.36,53.9 218.69,52.96 
		219.02,52.4 219.64,51.95 220.27,51.38 220.96,50.67 221.33,50 221.92,49.85 222.51,49.47 222.73,48.98 223.13,48.8 223.79,48.57 
		224.3,47.97 224.78,47.82 225,46.96 	"/>
	<polygon class="st0" points="88.06,76.63 80.47,76.63 80.47,77.7 83.68,77.7 83.68,86.36 84.84,86.36 84.84,77.7 88.06,77.7 
		88.06,76.63 	"/>
	<polygon class="st0" points="91.83,86.36 98.2,86.36 98.2,85.29 92.99,85.29 92.99,81.83 97.62,81.83 97.62,80.75 92.99,80.75 
		92.99,77.7 97.95,77.7 97.95,76.63 91.83,76.63 91.83,86.36 	"/>
	<polygon class="st0" points="115.59,86.36 116.74,86.36 116.74,81.41 116.91,81.41 121.54,86.36 123.23,86.36 118.19,81.07 
		123,76.63 121.34,76.63 116.91,80.84 116.74,80.84 116.74,76.63 115.59,76.63 115.59,86.36 	"/>
	<polygon class="st0" points="127.02,86.36 128.17,86.36 128.17,81.83 133.37,81.83 133.37,86.36 134.52,86.36 134.52,76.63 
		133.37,76.63 133.37,80.75 128.17,80.75 128.17,76.63 127.02,76.63 127.02,86.36 	"/>
	<path class="st0" d="M159.59,76.63h-1.16v5.86c0,1.57-0.58,3.05-2.52,3.05c-1.94,0-2.52-1.49-2.52-3.05v-5.86h-1.15v6.02
		c0,2.12,0.99,3.96,3.67,3.96c2.68,0,3.67-1.84,3.67-3.96V76.63L159.59,76.63z"/>
	<polygon class="st0" points="175.4,86.36 181.77,86.36 181.77,85.29 176.55,85.29 176.55,81.83 181.19,81.83 181.19,80.75 
		176.55,80.75 176.55,77.7 181.52,77.7 181.52,76.63 175.4,76.63 175.4,86.36 	"/>
	<path class="st0" d="M76.19,78.24l0.55-0.86c0,0-1.59-0.86-2.69-0.86c-1.1,0-3.24,0.12-3.24,2.51c0,3.06,5.44,2.08,5.44,4.71
		c0,2.63-4.71,2.02-5.93,0.98v1.1c0,0,1.1,0.8,3.36,0.8c2.26,0,3.85-1.22,3.85-3c0-3.55-5.44-2.69-5.44-4.77
		C72.1,76.77,76.19,78.24,76.19,78.24L76.19,78.24z"/>
	<path class="st0" d="M169.61,78.24l0.55-0.86c0,0-1.59-0.86-2.69-0.86c-1.1,0-3.24,0.12-3.24,2.51c0,3.06,5.44,2.08,5.44,4.71
		c0,2.63-4.71,2.02-5.93,0.98v1.1c0,0,1.1,0.8,3.36,0.8c2.26,0,3.85-1.22,3.85-3c0-3.55-5.44-2.69-5.44-4.77
		C165.51,76.77,169.61,78.24,169.61,78.24L169.61,78.24z"/>
	<g>
		<path class="st0" d="M55.97,53.22l-0.26-1.32l-0.3-0.55l-0.11-0.82l0.26-0.31l-0.11-0.51l-0.23-0.58l-0.04-0.54l-0.71-1.24
			l-0.52-1.05l-0.45-0.23l-0.41-0.31l-0.3-1.05l-0.41-0.31l-0.52-0.66l-0.38-0.08l-0.22-0.47l-0.53-0.51l-0.82-0.27l-0.45-0.19
			l-0.49-0.66l-0.56-0.31l-0.86-0.31H46.9l-0.53-0.43l-0.64-0.31l-1.35-0.47l-0.98-0.12l-0.97,0.08l-0.37,0.08l-0.52-0.23L40.9,39.5
			l-0.64,0.04l-0.9,0.27l-1.35,0.12l-0.71,0.31l-0.64,0.43l-1.09,0.08l-0.56,0.39l-0.86,0.19l-0.86,0.43l-0.56,0.66l-0.26,0.7
			l-0.67,0.08l-1.01,0.78l-0.75,1.05l-0.82,0.86l-0.19,0.74l-0.41,0.15l-0.49,0.97l-1.01,2.76v1.13l0.15,0.31v0.54l-0.23,0.93
			l-0.26,0.47l0.15,0.58v1.75l0.52,1.05l-0.04,0.51l0.67,1.44l0.52,0.89l0.34,0.7l-0.08,0.62l0.45,0.54l0.56,0.97l0.79,0.86
			l0.79,0.7l0.97,0.54l0.94,0.31l0.41,0.78l1.54,0.66l1.09,0.43h0.53l0.82,0.27h0.75l0.19-0.16l0.79,0.47H40l0.97,0.04L41.8,68h0.86
			l0.71-0.27h1.01l0.9-0.31l0.64-0.31l0.67-0.54l0.38,0.08l0.86-0.12l1.8-1.17l0.49-0.5l0.6-0.39l0.6-0.27l0.26-0.39l0.3-0.78
			l0.52-0.31l1.28-1.28l0.94-1.21l0.15-0.74l0.08-0.78v-0.82l0.52-0.51l0.38-0.58l0.07-0.85l0.04-0.7l0.15-0.97L55.97,53.22z
			 M44.28,55.13l-0.26,1.05l-0.34,1.05l-0.41,0.58l-0.49,0.31l-0.94,0.66l-0.52,0.04l-0.41,0.16l-0.49-0.08L40,58.66l-0.56-0.16
			l-0.82-1.28l-0.19-0.08l-0.15-1.87l-0.07-0.43l-0.22-0.5l-0.08-0.58l0.19-0.39l-0.04-0.58l0.22-0.66l0.04-1.09l-0.11-0.51
			l0.49-0.39l0.41-0.86l0.94-0.43l0.75-0.39h0.49l0.79,0.43l0.41,0.19l0.41,0.58l0.56,0.31l0.49,0.62l0.26,0.43l0.11,1.36
			l-0.08,1.52l0.15,0.62L44.28,55.13z"/>
	</g>
	<g>
		<path class="st0" d="M137.77,59.49l0.37-0.64l-0.07-0.56l-0.48-1.58L137.21,56l-0.62-0.41v-0.52l-0.11-0.38l-0.33-0.64l-0.66-0.38
			l-0.26-0.45l0.26-0.23l0.51-0.41l0.11-0.41l0.55-0.49l0.4-1.13l-0.04-1.09l0.37-0.38l0.29-0.41l-0.04-2.36l-0.26-0.71l-0.37-0.79
			l-0.48-0.41l-0.07-0.6l-0.55-0.75l-0.81-0.64l-0.84-0.38h-0.77l-0.37-0.41l-0.51-0.34l-0.73-0.26l-1.03,0.04l-0.29-0.15
			l-2.93,0.04l-0.88,0.26l-0.48-0.04l-0.92-0.26h-0.92l-0.99,0.34l-0.29,0.04l-0.51-0.26l-1.03,0.07l-2.35,0.04l-0.33-0.19
			l-0.44,0.04l-0.73,0.41l-0.18,0.04l-0.66-0.49l-1.1,0.04l-0.37,0.11l-0.7,0.34l-0.48,0.64l0.04,1.54l0.4,0.6l0.04,0.3l-0.48,0.64
			l-0.22,0.64l0.04,1.09l0.55,0.98v0.71l-0.48,1.28l0.07,3.08l0.18,0.41l-0.22,0.56l-0.22,0.94l0.18,1.46l0.04,1.54l0.26,0.79
			l-0.07,0.49l0.07,0.56l-0.33,0.9l-0.07,1.73l0.22,0.41l0.11,0.6l-0.26,0.37l-0.18,0.68l0.04,2.81l0.37,0.6l0.62,0.45l1.51-0.04
			l0.37-0.15l1.39-0.08l0.81-0.15l0.4-0.15l0.73,0.23l2.64-0.04l0.62-0.3h0.37l0.84,0.37h2.68l0.44-0.26l0.92,0.3l1.25-0.07
			l0.59,0.04l1.54-0.04l0.59-0.3l0.4-0.26l0.95-0.22l0.99-0.56l0.77-0.71l0.51-0.67l0.26-0.98l0.29-0.26l0.11-0.67l0.44-0.3
			l0.4-0.75v-0.68l0.26-0.83l-0.07-0.6L137.77,59.49z M126.02,59.75l-0.37,0.19l-0.48-0.15l-0.26-0.26l0.04-0.6l-0.11-0.38
			l-0.04-0.53l0.11-0.22l0.04-0.9l0.37-0.11l0.59,0.07l0.44,0.45v0.41l0.33,0.56L126.02,59.75z M126.54,48.98l-0.4,0.94l-0.37,0.41
			l-0.55-0.04l-0.18-0.3l-0.07-0.53l-0.26-0.64v-0.34l0.51-0.68l0.7-0.04l0.55,0.34l0.22,0.3L126.54,48.98z"/>
	</g>
	<g>
		<path class="st0" d="M171.21,65.01l-0.81-1.54l-0.37-0.41l0.11-0.45L170,61.97l-0.99-2.85l-0.26-0.79l-0.37-0.38l0.07-0.94
			l-0.26-0.45l-0.04-0.34l-0.66-1.28l-0.44-0.34l-0.29-0.45l-0.11-0.38l0.15-0.67v-0.45l-0.66-1.76l-0.48-0.23l-0.22-0.41
			l-0.04-0.34l-0.33-0.41l0.07-0.45l0.11-0.34l-0.73-2.89l-0.29-0.75l-0.29-0.41l0.07-0.41l0.07-0.34l-0.07-0.41l-0.33-0.71
			l-0.33-0.9l-0.37-0.37l-0.44-0.23l-0.92-0.19l-0.62,0.08l-0.77,0.23l-0.62-0.11l-0.81-0.07l-0.88-0.15l-0.4,0.08l-0.7,0.26
			l-0.22-0.04l-0.62-0.38l-1.72,0.08l-0.37-0.04h-0.92l-0.44,0.26h-0.26l-0.81-0.34l-0.51-0.08h-1.06l-0.77,0.41l-0.55-0.11
			l-0.7-0.3h-0.59l-0.59,0.3l-0.7,0.56l-0.22,0.75l-0.04,0.75l0.07,0.3v0.52l0.18,0.38l0.29,0.49l-0.26,0.71l-0.04,0.64l-0.33,0.56
			l-0.04,1.01l0.18,0.9l0.73,0.98l0.73,0.04l1.25-0.04l0.22,0.3l-0.33,1.43l0.04,1.01l-0.51,0.41l-0.44,0.9l-0.44,0.98l0.11,0.34
			l-0.15,0.45l-0.37,0.11l-0.55,1.54l-0.04,0.68l-0.26,0.19l-0.37,0.49l-0.37,0.68l-0.48,1.05v0.52l-0.51,0.3l-0.18,0.23l-0.07,0.49
			l-0.29,0.56l0.07,0.34l0.04,0.45l-0.59,0.3l-0.55,0.86l0.07,0.41l-0.33,0.3l-0.22,0.41l-0.26,0.45l0.04,0.67l0.33,0.49l0.15,0.38
			l0.59,0.34l0.73,0.08l0.11-0.23l0.26,0.15l0.44,0.04l0.26-0.19l1.07,0.15l0.99-0.11l0.44-0.15l0.7,0.3l0.59,0.04l0.73-0.3
			l0.29-0.04l0.33,0.22l0.55,0.11l0.95-0.04l0.55-0.15l0.33-0.41l0.59-1.46v-0.15l0.73-1.2l0.7-0.22l0.33-0.23l0.95,0.26l0.22-0.07
			l1.06,0.11l0.33-0.23h0.59l0.55,0.26l0.81-0.04l0.4,0.34l0.55,1.16l0.44,0.3v0.68l0.14,0.41l0.37,0.41l0.88,0.26l1.5-0.04
			l0.81-0.34l0.29-0.07l0.7,0.49l0.29,0.04l0.29-0.11l1.32-0.04l0.92-0.45l0.55,0.38l0.55,0.23l0.77-0.19l0.55-0.26l0.73-0.6
			l0.22-0.56l0.07-0.6L171.21,65.01z M156.46,58.59l-1.14-0.45v-0.49l0.48-0.6v-0.56l0.29-0.53h0.22l0.55,0.53l-0.04,0.94l0.29,0.75
			L156.46,58.59z"/>
	</g>
	<g>
		<path class="st0" d="M142.93,76.38c-2.96,0-5.09,2.17-5.09,5.12c0,2.94,2.13,5.12,5.09,5.12c2.96,0,5.09-2.17,5.09-5.12
			C148.02,78.55,145.89,76.38,142.93,76.38z M142.93,85.54c-2.28,0-3.85-1.8-3.85-4.04c0-2.24,1.57-4.04,3.85-4.04
			c2.28,0,3.85,1.8,3.85,4.04C146.78,83.74,145.21,85.54,142.93,85.54z"/>
	</g>
	<g>
		<path class="st0" d="M106.8,76.63h-1.09l-4.29,9.73h1.31l1.65-3.91H108l1.59,3.91h1.35L106.8,76.63z M104.89,81.23l1.32-3.12h0.03
			l1.27,3.12H104.89z"/>
	</g>
	<g>
		<path class="st0" d="M187.62,75.84c-1.66,0-3.07,1.29-3.07,3.03c0,1.75,1.41,3.03,3.07,3.03c1.65,0,3.06-1.28,3.06-3.03
			C190.68,77.13,189.27,75.84,187.62,75.84z M187.62,81.39c-1.38,0-2.46-1.07-2.46-2.53c0-1.43,1.08-2.53,2.46-2.53
			c1.37,0,2.45,1.09,2.45,2.53C190.07,80.32,188.99,81.39,187.62,81.39z"/>
		<path class="st0" d="M188.11,79.08c0.51-0.06,0.9-0.33,0.9-0.96c0-0.69-0.41-0.99-1.23-0.99h-1.32v3.49h0.53V79.1h0.6l0.92,1.51
			h0.59L188.11,79.08z M186.99,78.66v-1.08h0.72c0.37,0,0.76,0.08,0.76,0.51c0,0.54-0.4,0.57-0.84,0.57H186.99z"/>
	</g>
</g>
</svg>
