<?xml version="1.0" encoding="utf-8"?>
<!-- Generator: Adobe Illustrator 24.0.2, SVG Export Plug-In . SVG Version: 6.00 Build 0)  -->
<svg version="1.1" id="Layer_1" xmlns="http://www.w3.org/2000/svg" xmlns:xlink="http://www.w3.org/1999/xlink" x="0px" y="0px"
	 viewBox="0 0 50 70" style="enable-background:new 0 0 50 70;" xml:space="preserve">
<g>
	<path d="M25,27.08L25,27.08c-0.65,0-1.19-0.53-1.19-1.19v-2.61c0-0.65,0.53-1.19,1.19-1.19h0c0.65,0,1.19,0.53,1.19,1.19v2.61
		C26.19,26.55,25.65,27.08,25,27.08z"/>
	<path d="M25.06,55.59l-4.09-4.09c-0.29-0.29-0.29-0.77,0-1.06s0.77-0.29,1.06,0l3.03,3.03l2.92-2.92c0.29-0.29,0.77-0.29,1.06,0
		s0.29,0.77,0,1.06L25.06,55.59z"/>
	<path d="M25.48,46.53h-0.95c-5.35,0-9.7-4.35-9.7-9.7V24.11c0-5.35,4.35-9.7,9.7-9.7h0.95c5.35,0,9.7,4.35,9.7,9.7v12.71
		C35.18,42.17,30.82,46.53,25.48,46.53z M24.52,16.47c-4.22,0-7.65,3.43-7.65,7.65v12.71c0,4.22,3.43,7.65,7.65,7.65h0.95
		c4.22,0,7.65-3.43,7.65-7.65V24.11c0-4.22-3.43-7.65-7.65-7.65H24.52z"/>
</g>
</svg>
